<mxfile host="app.diagrams.net" agent="Mozilla/5.0 (Macintosh; Intel Mac OS X 10_15_7) AppleWebKit/605.1.15 (KHTML, like Gecko) Version/18.1 Safari/605.1.15" version="24.7.17">
  <diagram id="C5RBs43oDa-KdzZeNtuy" name="Page-1">
    <mxGraphModel dx="1405" dy="938" grid="1" gridSize="10" guides="1" tooltips="1" connect="1" arrows="1" fold="1" page="1" pageScale="1" pageWidth="827" pageHeight="1169" math="0" shadow="0">
      <root>
        <mxCell id="WIyWlLk6GJQsqaUBKTNV-0" />
        <mxCell id="WIyWlLk6GJQsqaUBKTNV-1" parent="WIyWlLk6GJQsqaUBKTNV-0" />
        <mxCell id="YLLOaxHBiWGZTTnEDzXJ-4" value="&amp;lt;&amp;lt;enumeration&amp;gt;&amp;gt;&lt;br&gt;&lt;b&gt;Status&lt;/b&gt;" style="swimlane;fontStyle=0;align=center;verticalAlign=top;childLayout=stackLayout;horizontal=1;startSize=40;horizontalStack=0;resizeParent=1;resizeParentMax=0;resizeLast=0;collapsible=0;marginBottom=0;html=1;whiteSpace=wrap;" parent="WIyWlLk6GJQsqaUBKTNV-1" vertex="1">
          <mxGeometry x="690" y="10" width="120" height="96" as="geometry" />
        </mxCell>
        <mxCell id="YLLOaxHBiWGZTTnEDzXJ-6" value="Ok" style="text;strokeColor=none;fillColor=none;align=left;verticalAlign=top;spacingLeft=4;spacingRight=4;overflow=hidden;rotatable=0;points=[[0,0.5],[1,0.5]];portConstraint=eastwest;whiteSpace=wrap;html=1;" parent="YLLOaxHBiWGZTTnEDzXJ-4" vertex="1">
          <mxGeometry y="40" width="120" height="26" as="geometry" />
        </mxCell>
        <mxCell id="YLLOaxHBiWGZTTnEDzXJ-5" value="Error" style="text;html=1;strokeColor=none;fillColor=none;align=left;verticalAlign=middle;spacingLeft=4;spacingRight=4;overflow=hidden;rotatable=0;points=[[0,0.5],[1,0.5]];portConstraint=eastwest;whiteSpace=wrap;" parent="YLLOaxHBiWGZTTnEDzXJ-4" vertex="1">
          <mxGeometry y="66" width="120" height="30" as="geometry" />
        </mxCell>
        <mxCell id="YLLOaxHBiWGZTTnEDzXJ-40" value="" style="endArrow=diamondThin;endFill=1;endSize=24;html=1;rounded=0;entryX=1;entryY=0.5;entryDx=0;entryDy=0;edgeStyle=orthogonalEdgeStyle;" parent="WIyWlLk6GJQsqaUBKTNV-1" source="YLLOaxHBiWGZTTnEDzXJ-4" target="YLLOaxHBiWGZTTnEDzXJ-19" edge="1">
          <mxGeometry width="160" relative="1" as="geometry">
            <mxPoint x="660" y="100" as="sourcePoint" />
            <mxPoint x="650" y="90" as="targetPoint" />
            <Array as="points">
              <mxPoint x="480" y="63" />
              <mxPoint x="480" y="130" />
            </Array>
          </mxGeometry>
        </mxCell>
        <mxCell id="YLLOaxHBiWGZTTnEDzXJ-42" value="" style="endArrow=diamondThin;endFill=1;endSize=24;html=1;rounded=0;exitX=1;exitY=0.5;exitDx=0;exitDy=0;entryX=0.997;entryY=0.656;entryDx=0;entryDy=0;entryPerimeter=0;edgeStyle=orthogonalEdgeStyle;" parent="WIyWlLk6GJQsqaUBKTNV-1" source="YLLOaxHBiWGZTTnEDzXJ-125" target="YLLOaxHBiWGZTTnEDzXJ-29" edge="1">
          <mxGeometry width="160" relative="1" as="geometry">
            <mxPoint x="490" y="210" as="sourcePoint" />
            <mxPoint x="650" y="210" as="targetPoint" />
            <Array as="points">
              <mxPoint x="220" y="200" />
              <mxPoint x="270" y="200" />
              <mxPoint x="270" y="123" />
            </Array>
          </mxGeometry>
        </mxCell>
        <mxCell id="YLLOaxHBiWGZTTnEDzXJ-43" value="" style="endArrow=block;endSize=16;endFill=0;html=1;rounded=0;entryX=0;entryY=0.128;entryDx=0;entryDy=0;exitX=0.5;exitY=0;exitDx=0;exitDy=0;edgeStyle=orthogonalEdgeStyle;entryPerimeter=0;" parent="WIyWlLk6GJQsqaUBKTNV-1" source="YLLOaxHBiWGZTTnEDzXJ-134" target="YLLOaxHBiWGZTTnEDzXJ-117" edge="1">
          <mxGeometry x="0.7647" y="38" width="160" relative="1" as="geometry">
            <mxPoint x="520" y="200" as="sourcePoint" />
            <mxPoint x="640" y="180" as="targetPoint" />
            <mxPoint as="offset" />
          </mxGeometry>
        </mxCell>
        <mxCell id="YLLOaxHBiWGZTTnEDzXJ-44" value="" style="endArrow=block;endSize=16;endFill=0;html=1;rounded=0;exitX=0;exitY=0.5;exitDx=0;exitDy=0;edgeStyle=orthogonalEdgeStyle;entryX=0.5;entryY=1;entryDx=0;entryDy=0;" parent="WIyWlLk6GJQsqaUBKTNV-1" source="YLLOaxHBiWGZTTnEDzXJ-142" target="YLLOaxHBiWGZTTnEDzXJ-117" edge="1">
          <mxGeometry width="160" relative="1" as="geometry">
            <mxPoint x="340" y="180" as="sourcePoint" />
            <mxPoint x="500" y="180" as="targetPoint" />
            <Array as="points">
              <mxPoint x="580" y="190" />
              <mxPoint x="370" y="190" />
            </Array>
          </mxGeometry>
        </mxCell>
        <mxCell id="YLLOaxHBiWGZTTnEDzXJ-48" value="" style="endArrow=block;endSize=16;endFill=0;html=1;rounded=0;exitX=0.5;exitY=0;exitDx=0;exitDy=0;entryX=0.5;entryY=1;entryDx=0;entryDy=0;edgeStyle=orthogonalEdgeStyle;" parent="WIyWlLk6GJQsqaUBKTNV-1" source="YLLOaxHBiWGZTTnEDzXJ-147" target="YLLOaxHBiWGZTTnEDzXJ-142" edge="1">
          <mxGeometry width="160" relative="1" as="geometry">
            <mxPoint x="280" y="270" as="sourcePoint" />
            <mxPoint x="440" y="270" as="targetPoint" />
            <Array as="points">
              <mxPoint x="160" y="270" />
              <mxPoint x="660" y="270" />
            </Array>
          </mxGeometry>
        </mxCell>
        <mxCell id="YLLOaxHBiWGZTTnEDzXJ-79" value="&amp;lt;&amp;lt;enumeration&amp;gt;&amp;gt;&lt;br&gt;&lt;b&gt;Classification&lt;/b&gt;" style="swimlane;fontStyle=0;align=center;verticalAlign=top;childLayout=stackLayout;horizontal=1;startSize=40;horizontalStack=0;resizeParent=1;resizeParentMax=0;resizeLast=0;collapsible=0;marginBottom=0;html=1;whiteSpace=wrap;" parent="WIyWlLk6GJQsqaUBKTNV-1" vertex="1">
          <mxGeometry x="680" y="330" width="140" height="332" as="geometry" />
        </mxCell>
        <mxCell id="ryrtGhmW_Z26ruCLo2IK-88" value="Telegram.Earthquake" style="text;strokeColor=none;fillColor=none;align=left;verticalAlign=top;spacingLeft=4;spacingRight=4;overflow=hidden;rotatable=0;points=[[0,0.5],[1,0.5]];portConstraint=eastwest;whiteSpace=wrap;html=1;" vertex="1" parent="YLLOaxHBiWGZTTnEDzXJ-79">
          <mxGeometry y="40" width="140" height="26" as="geometry" />
        </mxCell>
        <mxCell id="ryrtGhmW_Z26ruCLo2IK-89" value="Telegram.Volcano" style="text;html=1;strokeColor=none;fillColor=none;align=left;verticalAlign=middle;spacingLeft=4;spacingRight=4;overflow=hidden;rotatable=0;points=[[0,0.5],[1,0.5]];portConstraint=eastwest;whiteSpace=wrap;" vertex="1" parent="YLLOaxHBiWGZTTnEDzXJ-79">
          <mxGeometry y="66" width="140" height="30" as="geometry" />
        </mxCell>
        <mxCell id="ryrtGhmW_Z26ruCLo2IK-90" value="Telegram.Weather" style="text;html=1;strokeColor=none;fillColor=none;align=left;verticalAlign=middle;spacingLeft=4;spacingRight=4;overflow=hidden;rotatable=0;points=[[0,0.5],[1,0.5]];portConstraint=eastwest;whiteSpace=wrap;" vertex="1" parent="YLLOaxHBiWGZTTnEDzXJ-79">
          <mxGeometry y="96" width="140" height="30" as="geometry" />
        </mxCell>
        <mxCell id="ryrtGhmW_Z26ruCLo2IK-91" value="Telegram.Forecast" style="text;html=1;strokeColor=none;fillColor=none;align=left;verticalAlign=middle;spacingLeft=4;spacingRight=4;overflow=hidden;rotatable=0;points=[[0,0.5],[1,0.5]];portConstraint=eastwest;whiteSpace=wrap;" vertex="1" parent="YLLOaxHBiWGZTTnEDzXJ-79">
          <mxGeometry y="126" width="140" height="30" as="geometry" />
        </mxCell>
        <mxCell id="ryrtGhmW_Z26ruCLo2IK-92" value="Telegram.Scheduled" style="text;html=1;strokeColor=none;fillColor=none;align=left;verticalAlign=middle;spacingLeft=4;spacingRight=4;overflow=hidden;rotatable=0;points=[[0,0.5],[1,0.5]];portConstraint=eastwest;whiteSpace=wrap;" vertex="1" parent="YLLOaxHBiWGZTTnEDzXJ-79">
          <mxGeometry y="156" width="140" height="30" as="geometry" />
        </mxCell>
        <mxCell id="ryrtGhmW_Z26ruCLo2IK-95" value="Eew.Warning" style="text;html=1;strokeColor=none;fillColor=none;align=left;verticalAlign=middle;spacingLeft=4;spacingRight=4;overflow=hidden;rotatable=0;points=[[0,0.5],[1,0.5]];portConstraint=eastwest;whiteSpace=wrap;" vertex="1" parent="YLLOaxHBiWGZTTnEDzXJ-79">
          <mxGeometry y="186" width="140" height="30" as="geometry" />
        </mxCell>
        <mxCell id="ryrtGhmW_Z26ruCLo2IK-94" value="Eew.Forecast" style="text;html=1;strokeColor=none;fillColor=none;align=left;verticalAlign=middle;spacingLeft=4;spacingRight=4;overflow=hidden;rotatable=0;points=[[0,0.5],[1,0.5]];portConstraint=eastwest;whiteSpace=wrap;" vertex="1" parent="YLLOaxHBiWGZTTnEDzXJ-79">
          <mxGeometry y="216" width="140" height="30" as="geometry" />
        </mxCell>
        <mxCell id="ryrtGhmW_Z26ruCLo2IK-97" value="WebSocket.Plus5" style="text;html=1;strokeColor=none;fillColor=none;align=left;verticalAlign=middle;spacingLeft=4;spacingRight=4;overflow=hidden;rotatable=0;points=[[0,0.5],[1,0.5]];portConstraint=eastwest;whiteSpace=wrap;" vertex="1" parent="YLLOaxHBiWGZTTnEDzXJ-79">
          <mxGeometry y="246" width="140" height="30" as="geometry" />
        </mxCell>
        <mxCell id="ryrtGhmW_Z26ruCLo2IK-96" value="WebSocket.Plus2" style="text;strokeColor=none;fillColor=none;align=left;verticalAlign=top;spacingLeft=4;spacingRight=4;overflow=hidden;rotatable=0;points=[[0,0.5],[1,0.5]];portConstraint=eastwest;whiteSpace=wrap;html=1;" vertex="1" parent="YLLOaxHBiWGZTTnEDzXJ-79">
          <mxGeometry y="276" width="140" height="26" as="geometry" />
        </mxCell>
        <mxCell id="ryrtGhmW_Z26ruCLo2IK-98" value="Other" style="text;html=1;strokeColor=none;fillColor=none;align=left;verticalAlign=middle;spacingLeft=4;spacingRight=4;overflow=hidden;rotatable=0;points=[[0,0.5],[1,0.5]];portConstraint=eastwest;whiteSpace=wrap;" vertex="1" parent="YLLOaxHBiWGZTTnEDzXJ-79">
          <mxGeometry y="302" width="140" height="30" as="geometry" />
        </mxCell>
        <mxCell id="YLLOaxHBiWGZTTnEDzXJ-103" value="" style="endArrow=diamondThin;endFill=1;endSize=24;html=1;rounded=0;entryX=1;entryY=0.5;entryDx=0;entryDy=0;exitX=0;exitY=0.5;exitDx=0;exitDy=0;edgeStyle=orthogonalEdgeStyle;" parent="WIyWlLk6GJQsqaUBKTNV-1" source="YLLOaxHBiWGZTTnEDzXJ-55" target="YLLOaxHBiWGZTTnEDzXJ-150" edge="1">
          <mxGeometry width="160" relative="1" as="geometry">
            <mxPoint x="413" y="431" as="sourcePoint" />
            <mxPoint x="460" y="560" as="targetPoint" />
          </mxGeometry>
        </mxCell>
        <mxCell id="YLLOaxHBiWGZTTnEDzXJ-104" value="T = Contract" style="endArrow=block;endSize=16;endFill=0;html=1;rounded=0;entryX=0;entryY=0.5;entryDx=0;entryDy=0;exitX=0;exitY=0.5;exitDx=0;exitDy=0;edgeStyle=orthogonalEdgeStyle;" parent="WIyWlLk6GJQsqaUBKTNV-1" source="YLLOaxHBiWGZTTnEDzXJ-150" target="YLLOaxHBiWGZTTnEDzXJ-147" edge="1">
          <mxGeometry x="-0.4495" width="160" relative="1" as="geometry">
            <mxPoint x="250" y="450" as="sourcePoint" />
            <mxPoint x="410" y="450" as="targetPoint" />
            <Array as="points">
              <mxPoint x="30" y="430" />
              <mxPoint x="30" y="324" />
            </Array>
            <mxPoint as="offset" />
          </mxGeometry>
        </mxCell>
        <mxCell id="YLLOaxHBiWGZTTnEDzXJ-117" value="&amp;lt;&amp;lt;record class&amp;gt;&amp;gt;&lt;br&gt;&lt;b&gt;&lt;i&gt;ApiResponse&lt;/i&gt;&lt;/b&gt;&lt;br&gt;{abstract}" style="swimlane;fontStyle=0;align=center;verticalAlign=top;childLayout=stackLayout;horizontal=1;startSize=55;horizontalStack=0;resizeParent=1;resizeParentMax=0;resizeLast=0;collapsible=0;marginBottom=0;html=1;whiteSpace=wrap;" parent="WIyWlLk6GJQsqaUBKTNV-1" vertex="1">
          <mxGeometry x="290" y="10" width="160" height="141" as="geometry" />
        </mxCell>
        <mxCell id="YLLOaxHBiWGZTTnEDzXJ-18" value="+ ResponseId: string" style="text;strokeColor=none;fillColor=none;align=left;verticalAlign=top;spacingLeft=4;spacingRight=4;overflow=hidden;rotatable=0;points=[[0,0.5],[1,0.5]];portConstraint=eastwest;whiteSpace=wrap;html=1;" parent="YLLOaxHBiWGZTTnEDzXJ-117" vertex="1">
          <mxGeometry y="55" width="160" height="26" as="geometry" />
        </mxCell>
        <mxCell id="YLLOaxHBiWGZTTnEDzXJ-15" value="+ ResponseTime: DateTime" style="text;strokeColor=none;fillColor=none;align=left;verticalAlign=top;spacingLeft=4;spacingRight=4;overflow=hidden;rotatable=0;points=[[0,0.5],[1,0.5]];portConstraint=eastwest;whiteSpace=wrap;html=1;" parent="YLLOaxHBiWGZTTnEDzXJ-117" vertex="1">
          <mxGeometry y="81" width="160" height="26" as="geometry" />
        </mxCell>
        <mxCell id="YLLOaxHBiWGZTTnEDzXJ-19" value="+ Status: Status" style="text;strokeColor=none;fillColor=none;align=left;verticalAlign=top;spacingLeft=4;spacingRight=4;overflow=hidden;rotatable=0;points=[[0,0.5],[1,0.5]];portConstraint=eastwest;whiteSpace=wrap;html=1;" parent="YLLOaxHBiWGZTTnEDzXJ-117" vertex="1">
          <mxGeometry y="107" width="160" height="26" as="geometry" />
        </mxCell>
        <mxCell id="YLLOaxHBiWGZTTnEDzXJ-122" value="" style="line;strokeWidth=1;fillColor=none;align=left;verticalAlign=middle;spacingTop=-1;spacingLeft=3;spacingRight=3;rotatable=0;labelPosition=right;points=[];portConstraint=eastwest;" parent="YLLOaxHBiWGZTTnEDzXJ-117" vertex="1">
          <mxGeometry y="133" width="160" height="8" as="geometry" />
        </mxCell>
        <mxCell id="YLLOaxHBiWGZTTnEDzXJ-125" value="&amp;lt;&amp;lt;record class&amp;gt;&amp;gt;&lt;br&gt;&lt;b&gt;HttpError&lt;/b&gt;" style="swimlane;fontStyle=0;align=center;verticalAlign=top;childLayout=stackLayout;horizontal=1;startSize=40;horizontalStack=0;resizeParent=1;resizeParentMax=0;resizeLast=0;collapsible=0;marginBottom=0;html=1;whiteSpace=wrap;" parent="WIyWlLk6GJQsqaUBKTNV-1" vertex="1">
          <mxGeometry x="100" y="151" width="120" height="100" as="geometry" />
        </mxCell>
        <mxCell id="YLLOaxHBiWGZTTnEDzXJ-34" value="+ Message: string" style="text;strokeColor=none;fillColor=none;align=left;verticalAlign=top;spacingLeft=4;spacingRight=4;overflow=hidden;rotatable=0;points=[[0,0.5],[1,0.5]];portConstraint=eastwest;whiteSpace=wrap;html=1;" parent="YLLOaxHBiWGZTTnEDzXJ-125" vertex="1">
          <mxGeometry y="40" width="120" height="26" as="geometry" />
        </mxCell>
        <mxCell id="YLLOaxHBiWGZTTnEDzXJ-35" value="+ Code: int" style="text;strokeColor=none;fillColor=none;align=left;verticalAlign=top;spacingLeft=4;spacingRight=4;overflow=hidden;rotatable=0;points=[[0,0.5],[1,0.5]];portConstraint=eastwest;whiteSpace=wrap;html=1;" parent="YLLOaxHBiWGZTTnEDzXJ-125" vertex="1">
          <mxGeometry y="66" width="120" height="26" as="geometry" />
        </mxCell>
        <mxCell id="YLLOaxHBiWGZTTnEDzXJ-129" value="" style="line;strokeWidth=1;fillColor=none;align=left;verticalAlign=middle;spacingTop=-1;spacingLeft=3;spacingRight=3;rotatable=0;labelPosition=right;points=[];portConstraint=eastwest;" parent="YLLOaxHBiWGZTTnEDzXJ-125" vertex="1">
          <mxGeometry y="92" width="120" height="8" as="geometry" />
        </mxCell>
        <mxCell id="YLLOaxHBiWGZTTnEDzXJ-134" value="&amp;lt;&amp;lt;record class&amp;gt;&amp;gt;&lt;br&gt;&lt;b&gt;ErrorResponse&lt;/b&gt;" style="swimlane;fontStyle=0;align=center;verticalAlign=top;childLayout=stackLayout;horizontal=1;startSize=40;horizontalStack=0;resizeParent=1;resizeParentMax=0;resizeLast=0;collapsible=0;marginBottom=0;html=1;whiteSpace=wrap;" parent="WIyWlLk6GJQsqaUBKTNV-1" vertex="1">
          <mxGeometry x="80" y="40" width="160" height="100" as="geometry" />
        </mxCell>
        <mxCell id="YLLOaxHBiWGZTTnEDzXJ-28" value="+ Status: Status = Error" style="text;strokeColor=none;fillColor=none;align=left;verticalAlign=top;spacingLeft=4;spacingRight=4;overflow=hidden;rotatable=0;points=[[0,0.5],[1,0.5]];portConstraint=eastwest;whiteSpace=wrap;html=1;" parent="YLLOaxHBiWGZTTnEDzXJ-134" vertex="1">
          <mxGeometry y="40" width="160" height="26" as="geometry" />
        </mxCell>
        <mxCell id="YLLOaxHBiWGZTTnEDzXJ-29" value="+ Error: HttpError" style="text;strokeColor=none;fillColor=none;align=left;verticalAlign=top;spacingLeft=4;spacingRight=4;overflow=hidden;rotatable=0;points=[[0,0.5],[1,0.5]];portConstraint=eastwest;whiteSpace=wrap;html=1;" parent="YLLOaxHBiWGZTTnEDzXJ-134" vertex="1">
          <mxGeometry y="66" width="160" height="26" as="geometry" />
        </mxCell>
        <mxCell id="YLLOaxHBiWGZTTnEDzXJ-137" value="" style="line;strokeWidth=1;fillColor=none;align=left;verticalAlign=middle;spacingTop=-1;spacingLeft=3;spacingRight=3;rotatable=0;labelPosition=right;points=[];portConstraint=eastwest;" parent="YLLOaxHBiWGZTTnEDzXJ-134" vertex="1">
          <mxGeometry y="92" width="160" height="8" as="geometry" />
        </mxCell>
        <mxCell id="YLLOaxHBiWGZTTnEDzXJ-142" value="&amp;lt;&amp;lt;record class&amp;gt;&amp;gt;&lt;br&gt;&lt;b&gt;&lt;i&gt;SuccessResponse&lt;/i&gt;&lt;/b&gt;&lt;br&gt;{abstract}" style="swimlane;fontStyle=0;align=center;verticalAlign=top;childLayout=stackLayout;horizontal=1;startSize=55;horizontalStack=0;resizeParent=1;resizeParentMax=0;resizeLast=0;collapsible=0;marginBottom=0;html=1;whiteSpace=wrap;" parent="WIyWlLk6GJQsqaUBKTNV-1" vertex="1">
          <mxGeometry x="580" y="120" width="160" height="89" as="geometry" />
        </mxCell>
        <mxCell id="YLLOaxHBiWGZTTnEDzXJ-145" value="+ Status: Status = Success" style="text;strokeColor=none;fillColor=none;align=left;verticalAlign=top;spacingLeft=4;spacingRight=4;overflow=hidden;rotatable=0;points=[[0,0.5],[1,0.5]];portConstraint=eastwest;whiteSpace=wrap;html=1;" parent="YLLOaxHBiWGZTTnEDzXJ-142" vertex="1">
          <mxGeometry y="55" width="160" height="26" as="geometry" />
        </mxCell>
        <mxCell id="YLLOaxHBiWGZTTnEDzXJ-146" value="" style="line;strokeWidth=1;fillColor=none;align=left;verticalAlign=middle;spacingTop=-1;spacingLeft=3;spacingRight=3;rotatable=0;labelPosition=right;points=[];portConstraint=eastwest;" parent="YLLOaxHBiWGZTTnEDzXJ-142" vertex="1">
          <mxGeometry y="81" width="160" height="8" as="geometry" />
        </mxCell>
        <mxCell id="YLLOaxHBiWGZTTnEDzXJ-147" value="&amp;lt;&amp;lt;record class&amp;gt;&amp;gt;&lt;br&gt;&lt;b&gt;&lt;i&gt;ListResponse&amp;lt;T&amp;gt;&lt;/i&gt;&lt;/b&gt;&lt;br&gt;{abstract}" style="swimlane;fontStyle=0;align=center;verticalAlign=top;childLayout=stackLayout;horizontal=1;startSize=55;horizontalStack=0;resizeParent=1;resizeParentMax=0;resizeLast=0;collapsible=0;marginBottom=0;html=1;whiteSpace=wrap;" parent="WIyWlLk6GJQsqaUBKTNV-1" vertex="1">
          <mxGeometry x="80" y="280" width="160" height="89" as="geometry" />
        </mxCell>
        <mxCell id="YLLOaxHBiWGZTTnEDzXJ-148" value="+ Items: List&amp;lt;T&amp;gt;" style="text;strokeColor=none;fillColor=none;align=left;verticalAlign=top;spacingLeft=4;spacingRight=4;overflow=hidden;rotatable=0;points=[[0,0.5],[1,0.5]];portConstraint=eastwest;whiteSpace=wrap;html=1;" parent="YLLOaxHBiWGZTTnEDzXJ-147" vertex="1">
          <mxGeometry y="55" width="160" height="26" as="geometry" />
        </mxCell>
        <mxCell id="YLLOaxHBiWGZTTnEDzXJ-149" value="" style="line;strokeWidth=1;fillColor=none;align=left;verticalAlign=middle;spacingTop=-1;spacingLeft=3;spacingRight=3;rotatable=0;labelPosition=right;points=[];portConstraint=eastwest;" parent="YLLOaxHBiWGZTTnEDzXJ-147" vertex="1">
          <mxGeometry y="81" width="160" height="8" as="geometry" />
        </mxCell>
        <mxCell id="YLLOaxHBiWGZTTnEDzXJ-150" value="&amp;lt;&amp;lt;record class&amp;gt;&amp;gt;&lt;br&gt;&lt;b&gt;ContractList&lt;/b&gt;" style="swimlane;fontStyle=0;align=center;verticalAlign=top;childLayout=stackLayout;horizontal=1;startSize=38;horizontalStack=0;resizeParent=1;resizeParentMax=0;resizeLast=0;collapsible=0;marginBottom=0;html=1;whiteSpace=wrap;" parent="WIyWlLk6GJQsqaUBKTNV-1" vertex="1">
          <mxGeometry x="180" y="408" width="160" height="46" as="geometry" />
        </mxCell>
        <mxCell id="YLLOaxHBiWGZTTnEDzXJ-152" value="" style="line;strokeWidth=1;fillColor=none;align=left;verticalAlign=middle;spacingTop=-1;spacingLeft=3;spacingRight=3;rotatable=0;labelPosition=right;points=[];portConstraint=eastwest;" parent="YLLOaxHBiWGZTTnEDzXJ-150" vertex="1">
          <mxGeometry y="38" width="160" height="8" as="geometry" />
        </mxCell>
        <mxCell id="YLLOaxHBiWGZTTnEDzXJ-154" value="&amp;lt;&amp;lt;record class&amp;gt;&amp;gt;&lt;br&gt;&lt;b&gt;Contract&lt;/b&gt;" style="swimlane;fontStyle=0;align=center;verticalAlign=top;childLayout=stackLayout;horizontal=1;startSize=38;horizontalStack=0;resizeParent=1;resizeParentMax=0;resizeLast=0;collapsible=0;marginBottom=0;html=1;whiteSpace=wrap;" parent="WIyWlLk6GJQsqaUBKTNV-1" vertex="1">
          <mxGeometry x="420" y="380" width="180" height="254" as="geometry" />
        </mxCell>
        <mxCell id="YLLOaxHBiWGZTTnEDzXJ-55" value="+ Id: int?" style="text;strokeColor=none;fillColor=none;align=left;verticalAlign=top;spacingLeft=4;spacingRight=4;overflow=hidden;rotatable=0;points=[[0,0.5],[1,0.5]];portConstraint=eastwest;whiteSpace=wrap;html=1;" parent="YLLOaxHBiWGZTTnEDzXJ-154" vertex="1">
          <mxGeometry y="38" width="180" height="26" as="geometry" />
        </mxCell>
        <mxCell id="YLLOaxHBiWGZTTnEDzXJ-56" value="+ PlanId: int" style="text;strokeColor=none;fillColor=none;align=left;verticalAlign=top;spacingLeft=4;spacingRight=4;overflow=hidden;rotatable=0;points=[[0,0.5],[1,0.5]];portConstraint=eastwest;whiteSpace=wrap;html=1;" parent="YLLOaxHBiWGZTTnEDzXJ-154" vertex="1">
          <mxGeometry y="64" width="180" height="26" as="geometry" />
        </mxCell>
        <mxCell id="YLLOaxHBiWGZTTnEDzXJ-57" value="+ PlanName: string" style="text;strokeColor=none;fillColor=none;align=left;verticalAlign=top;spacingLeft=4;spacingRight=4;overflow=hidden;rotatable=0;points=[[0,0.5],[1,0.5]];portConstraint=eastwest;whiteSpace=wrap;html=1;" parent="YLLOaxHBiWGZTTnEDzXJ-154" vertex="1">
          <mxGeometry y="90" width="180" height="26" as="geometry" />
        </mxCell>
        <mxCell id="YLLOaxHBiWGZTTnEDzXJ-60" value="+ Classifications: Classification" style="text;strokeColor=none;fillColor=none;align=left;verticalAlign=top;spacingLeft=4;spacingRight=4;overflow=hidden;rotatable=0;points=[[0,0.5],[1,0.5]];portConstraint=eastwest;whiteSpace=wrap;html=1;" parent="YLLOaxHBiWGZTTnEDzXJ-154" vertex="1">
          <mxGeometry y="116" width="180" height="26" as="geometry" />
        </mxCell>
        <mxCell id="YLLOaxHBiWGZTTnEDzXJ-59" value="+ Price: Price" style="text;strokeColor=none;fillColor=none;align=left;verticalAlign=top;spacingLeft=4;spacingRight=4;overflow=hidden;rotatable=0;points=[[0,0.5],[1,0.5]];portConstraint=eastwest;whiteSpace=wrap;html=1;" parent="YLLOaxHBiWGZTTnEDzXJ-154" vertex="1">
          <mxGeometry y="142" width="180" height="26" as="geometry" />
        </mxCell>
        <mxCell id="YLLOaxHBiWGZTTnEDzXJ-73" value="+ Start: DateTime?" style="text;strokeColor=none;fillColor=none;align=left;verticalAlign=top;spacingLeft=4;spacingRight=4;overflow=hidden;rotatable=0;points=[[0,0.5],[1,0.5]];portConstraint=eastwest;whiteSpace=wrap;html=1;" parent="YLLOaxHBiWGZTTnEDzXJ-154" vertex="1">
          <mxGeometry y="168" width="180" height="26" as="geometry" />
        </mxCell>
        <mxCell id="YLLOaxHBiWGZTTnEDzXJ-72" value="+ IsValid: bool" style="text;strokeColor=none;fillColor=none;align=left;verticalAlign=top;spacingLeft=4;spacingRight=4;overflow=hidden;rotatable=0;points=[[0,0.5],[1,0.5]];portConstraint=eastwest;whiteSpace=wrap;html=1;" parent="YLLOaxHBiWGZTTnEDzXJ-154" vertex="1">
          <mxGeometry y="194" width="180" height="26" as="geometry" />
        </mxCell>
        <mxCell id="YLLOaxHBiWGZTTnEDzXJ-74" value="+ ConnectionCounts: int" style="text;strokeColor=none;fillColor=none;align=left;verticalAlign=top;spacingLeft=4;spacingRight=4;overflow=hidden;rotatable=0;points=[[0,0.5],[1,0.5]];portConstraint=eastwest;whiteSpace=wrap;html=1;" parent="YLLOaxHBiWGZTTnEDzXJ-154" vertex="1">
          <mxGeometry y="220" width="180" height="26" as="geometry" />
        </mxCell>
        <mxCell id="YLLOaxHBiWGZTTnEDzXJ-156" value="" style="line;strokeWidth=1;fillColor=none;align=left;verticalAlign=middle;spacingTop=-1;spacingLeft=3;spacingRight=3;rotatable=0;labelPosition=right;points=[];portConstraint=eastwest;" parent="YLLOaxHBiWGZTTnEDzXJ-154" vertex="1">
          <mxGeometry y="246" width="180" height="8" as="geometry" />
        </mxCell>
        <mxCell id="YLLOaxHBiWGZTTnEDzXJ-157" value="&amp;lt;&amp;lt;record class&amp;gt;&amp;gt;&lt;br&gt;&lt;b&gt;&lt;i&gt;TokenResponse&amp;lt;T&amp;gt;&lt;/i&gt;&lt;/b&gt;&lt;br&gt;{abstract}" style="swimlane;fontStyle=0;align=center;verticalAlign=top;childLayout=stackLayout;horizontal=1;startSize=55;horizontalStack=0;resizeParent=1;resizeParentMax=0;resizeLast=0;collapsible=0;marginBottom=0;html=1;whiteSpace=wrap;" parent="WIyWlLk6GJQsqaUBKTNV-1" vertex="1">
          <mxGeometry x="80" y="470" width="160" height="89" as="geometry" />
        </mxCell>
        <mxCell id="YLLOaxHBiWGZTTnEDzXJ-158" value="+ NextToken: string" style="text;strokeColor=none;fillColor=none;align=left;verticalAlign=top;spacingLeft=4;spacingRight=4;overflow=hidden;rotatable=0;points=[[0,0.5],[1,0.5]];portConstraint=eastwest;whiteSpace=wrap;html=1;" parent="YLLOaxHBiWGZTTnEDzXJ-157" vertex="1">
          <mxGeometry y="55" width="160" height="26" as="geometry" />
        </mxCell>
        <mxCell id="YLLOaxHBiWGZTTnEDzXJ-159" value="" style="line;strokeWidth=1;fillColor=none;align=left;verticalAlign=middle;spacingTop=-1;spacingLeft=3;spacingRight=3;rotatable=0;labelPosition=right;points=[];portConstraint=eastwest;" parent="YLLOaxHBiWGZTTnEDzXJ-157" vertex="1">
          <mxGeometry y="81" width="160" height="8" as="geometry" />
        </mxCell>
        <mxCell id="YLLOaxHBiWGZTTnEDzXJ-161" value="" style="endArrow=block;endSize=16;endFill=0;html=1;rounded=0;entryX=0;entryY=0.5;entryDx=0;entryDy=0;exitX=0;exitY=0.5;exitDx=0;exitDy=0;edgeStyle=orthogonalEdgeStyle;" parent="WIyWlLk6GJQsqaUBKTNV-1" source="YLLOaxHBiWGZTTnEDzXJ-157" target="YLLOaxHBiWGZTTnEDzXJ-147" edge="1">
          <mxGeometry width="160" relative="1" as="geometry">
            <mxPoint x="270" y="580" as="sourcePoint" />
            <mxPoint x="430" y="580" as="targetPoint" />
            <Array as="points">
              <mxPoint x="80" y="510" />
              <mxPoint x="30" y="510" />
              <mxPoint x="30" y="324" />
            </Array>
          </mxGeometry>
        </mxCell>
        <mxCell id="YLLOaxHBiWGZTTnEDzXJ-162" value="&amp;lt;&amp;lt;record class&amp;gt;&amp;gt;&lt;br&gt;&lt;div&gt;&lt;b&gt;&lt;i&gt;PoolingResponse&amp;lt;T&amp;gt;&lt;/i&gt;&lt;/b&gt;&lt;br&gt;{abstract}&lt;/div&gt;" style="swimlane;fontStyle=0;align=center;verticalAlign=top;childLayout=stackLayout;horizontal=1;startSize=55;horizontalStack=0;resizeParent=1;resizeParentMax=0;resizeLast=0;collapsible=0;marginBottom=0;html=1;whiteSpace=wrap;" parent="WIyWlLk6GJQsqaUBKTNV-1" vertex="1">
          <mxGeometry x="80" y="1010" width="160" height="141" as="geometry" />
        </mxCell>
        <mxCell id="YLLOaxHBiWGZTTnEDzXJ-185" value="+ NextToken: string?" style="text;strokeColor=none;fillColor=none;align=left;verticalAlign=top;spacingLeft=4;spacingRight=4;overflow=hidden;rotatable=0;points=[[0,0.5],[1,0.5]];portConstraint=eastwest;whiteSpace=wrap;html=1;" parent="YLLOaxHBiWGZTTnEDzXJ-162" vertex="1">
          <mxGeometry y="55" width="160" height="26" as="geometry" />
        </mxCell>
        <mxCell id="YLLOaxHBiWGZTTnEDzXJ-186" value="+ NextPooling: string" style="text;strokeColor=none;fillColor=none;align=left;verticalAlign=top;spacingLeft=4;spacingRight=4;overflow=hidden;rotatable=0;points=[[0,0.5],[1,0.5]];portConstraint=eastwest;whiteSpace=wrap;html=1;" parent="YLLOaxHBiWGZTTnEDzXJ-162" vertex="1">
          <mxGeometry y="81" width="160" height="26" as="geometry" />
        </mxCell>
        <mxCell id="YLLOaxHBiWGZTTnEDzXJ-187" value="+ NextPoolingInterval: int" style="text;strokeColor=none;fillColor=none;align=left;verticalAlign=top;spacingLeft=4;spacingRight=4;overflow=hidden;rotatable=0;points=[[0,0.5],[1,0.5]];portConstraint=eastwest;whiteSpace=wrap;html=1;" parent="YLLOaxHBiWGZTTnEDzXJ-162" vertex="1">
          <mxGeometry y="107" width="160" height="26" as="geometry" />
        </mxCell>
        <mxCell id="YLLOaxHBiWGZTTnEDzXJ-164" value="" style="line;strokeWidth=1;fillColor=none;align=left;verticalAlign=middle;spacingTop=-1;spacingLeft=3;spacingRight=3;rotatable=0;labelPosition=right;points=[];portConstraint=eastwest;" parent="YLLOaxHBiWGZTTnEDzXJ-162" vertex="1">
          <mxGeometry y="133" width="160" height="8" as="geometry" />
        </mxCell>
        <mxCell id="YLLOaxHBiWGZTTnEDzXJ-168" value="" style="endArrow=block;endSize=16;endFill=0;html=1;rounded=0;exitX=0;exitY=0.5;exitDx=0;exitDy=0;entryX=0;entryY=0.5;entryDx=0;entryDy=0;edgeStyle=orthogonalEdgeStyle;" parent="WIyWlLk6GJQsqaUBKTNV-1" source="YLLOaxHBiWGZTTnEDzXJ-162" target="YLLOaxHBiWGZTTnEDzXJ-147" edge="1">
          <mxGeometry width="160" relative="1" as="geometry">
            <mxPoint x="60" y="740" as="sourcePoint" />
            <mxPoint x="494" y="710" as="targetPoint" />
            <Array as="points">
              <mxPoint x="80" y="1041" />
              <mxPoint x="30" y="1041" />
              <mxPoint x="30" y="324" />
            </Array>
          </mxGeometry>
        </mxCell>
        <mxCell id="YLLOaxHBiWGZTTnEDzXJ-171" value="&amp;lt;&amp;lt;struct&amp;gt;&amp;gt;&lt;br&gt;&lt;b&gt;UnitPrice&lt;/b&gt;" style="swimlane;fontStyle=0;align=center;verticalAlign=top;childLayout=stackLayout;horizontal=1;startSize=43;horizontalStack=0;resizeParent=1;resizeParentMax=0;resizeLast=0;collapsible=0;marginBottom=0;html=1;whiteSpace=wrap;" parent="WIyWlLk6GJQsqaUBKTNV-1" vertex="1">
          <mxGeometry x="700" y="680" width="120" height="95" as="geometry" />
        </mxCell>
        <mxCell id="ryrtGhmW_Z26ruCLo2IK-36" value="+ Month: int" style="text;strokeColor=none;fillColor=none;align=left;verticalAlign=top;spacingLeft=4;spacingRight=4;overflow=hidden;rotatable=0;points=[[0,0.5],[1,0.5]];portConstraint=eastwest;whiteSpace=wrap;html=1;" vertex="1" parent="YLLOaxHBiWGZTTnEDzXJ-171">
          <mxGeometry y="43" width="120" height="26" as="geometry" />
        </mxCell>
        <mxCell id="ryrtGhmW_Z26ruCLo2IK-35" value="+ Day: int" style="text;strokeColor=none;fillColor=none;align=left;verticalAlign=top;spacingLeft=4;spacingRight=4;overflow=hidden;rotatable=0;points=[[0,0.5],[1,0.5]];portConstraint=eastwest;whiteSpace=wrap;html=1;" vertex="1" parent="YLLOaxHBiWGZTTnEDzXJ-171">
          <mxGeometry y="69" width="120" height="26" as="geometry" />
        </mxCell>
        <mxCell id="ryrtGhmW_Z26ruCLo2IK-0" value="&amp;lt;&amp;lt;record class&amp;gt;&amp;gt;&lt;br&gt;&lt;b&gt;WebSocketBasics&lt;/b&gt;" style="swimlane;fontStyle=0;align=center;verticalAlign=top;childLayout=stackLayout;horizontal=1;startSize=38;horizontalStack=0;resizeParent=1;resizeParentMax=0;resizeLast=0;collapsible=0;marginBottom=0;html=1;whiteSpace=wrap;" vertex="1" parent="WIyWlLk6GJQsqaUBKTNV-1">
          <mxGeometry x="410" y="781" width="210" height="202" as="geometry" />
        </mxCell>
        <mxCell id="ryrtGhmW_Z26ruCLo2IK-2" value="+ Ticket: string" style="text;strokeColor=none;fillColor=none;align=left;verticalAlign=top;spacingLeft=4;spacingRight=4;overflow=hidden;rotatable=0;points=[[0,0.5],[1,0.5]];portConstraint=eastwest;whiteSpace=wrap;html=1;" vertex="1" parent="ryrtGhmW_Z26ruCLo2IK-0">
          <mxGeometry y="38" width="210" height="26" as="geometry" />
        </mxCell>
        <mxCell id="ryrtGhmW_Z26ruCLo2IK-3" value="+ Classifications: List&amp;lt;Classification&amp;gt;" style="text;strokeColor=none;fillColor=none;align=left;verticalAlign=top;spacingLeft=4;spacingRight=4;overflow=hidden;rotatable=0;points=[[0,0.5],[1,0.5]];portConstraint=eastwest;whiteSpace=wrap;html=1;" vertex="1" parent="ryrtGhmW_Z26ruCLo2IK-0">
          <mxGeometry y="64" width="210" height="26" as="geometry" />
        </mxCell>
        <mxCell id="ryrtGhmW_Z26ruCLo2IK-4" value="+ Test: TestStatus" style="text;strokeColor=none;fillColor=none;align=left;verticalAlign=top;spacingLeft=4;spacingRight=4;overflow=hidden;rotatable=0;points=[[0,0.5],[1,0.5]];portConstraint=eastwest;whiteSpace=wrap;html=1;" vertex="1" parent="ryrtGhmW_Z26ruCLo2IK-0">
          <mxGeometry y="90" width="210" height="26" as="geometry" />
        </mxCell>
        <mxCell id="ryrtGhmW_Z26ruCLo2IK-5" value="+ Types: List&amp;lt;Type&amp;gt;?" style="text;strokeColor=none;fillColor=none;align=left;verticalAlign=top;spacingLeft=4;spacingRight=4;overflow=hidden;rotatable=0;points=[[0,0.5],[1,0.5]];portConstraint=eastwest;whiteSpace=wrap;html=1;" vertex="1" parent="ryrtGhmW_Z26ruCLo2IK-0">
          <mxGeometry y="116" width="210" height="26" as="geometry" />
        </mxCell>
        <mxCell id="ryrtGhmW_Z26ruCLo2IK-6" value="+ Formats: List&amp;lt;Format&amp;gt;" style="text;strokeColor=none;fillColor=none;align=left;verticalAlign=top;spacingLeft=4;spacingRight=4;overflow=hidden;rotatable=0;points=[[0,0.5],[1,0.5]];portConstraint=eastwest;whiteSpace=wrap;html=1;" vertex="1" parent="ryrtGhmW_Z26ruCLo2IK-0">
          <mxGeometry y="142" width="210" height="26" as="geometry" />
        </mxCell>
        <mxCell id="ryrtGhmW_Z26ruCLo2IK-7" value="+ AppName: string?" style="text;strokeColor=none;fillColor=none;align=left;verticalAlign=top;spacingLeft=4;spacingRight=4;overflow=hidden;rotatable=0;points=[[0,0.5],[1,0.5]];portConstraint=eastwest;whiteSpace=wrap;html=1;" vertex="1" parent="ryrtGhmW_Z26ruCLo2IK-0">
          <mxGeometry y="168" width="210" height="26" as="geometry" />
        </mxCell>
        <mxCell id="ryrtGhmW_Z26ruCLo2IK-9" value="" style="line;strokeWidth=1;fillColor=none;align=left;verticalAlign=middle;spacingTop=-1;spacingLeft=3;spacingRight=3;rotatable=0;labelPosition=right;points=[];portConstraint=eastwest;" vertex="1" parent="ryrtGhmW_Z26ruCLo2IK-0">
          <mxGeometry y="194" width="210" height="8" as="geometry" />
        </mxCell>
        <mxCell id="ryrtGhmW_Z26ruCLo2IK-34" value="" style="endArrow=open;endFill=1;endSize=12;html=1;rounded=0;entryX=1;entryY=0.5;entryDx=0;entryDy=0;exitX=0;exitY=0.5;exitDx=0;exitDy=0;edgeStyle=orthogonalEdgeStyle;" edge="1" parent="WIyWlLk6GJQsqaUBKTNV-1" source="YLLOaxHBiWGZTTnEDzXJ-171" target="YLLOaxHBiWGZTTnEDzXJ-59">
          <mxGeometry width="160" relative="1" as="geometry">
            <mxPoint x="670" y="720" as="sourcePoint" />
            <mxPoint x="610" y="710" as="targetPoint" />
            <Array as="points">
              <mxPoint x="640" y="728" />
              <mxPoint x="640" y="535" />
            </Array>
          </mxGeometry>
        </mxCell>
        <mxCell id="ryrtGhmW_Z26ruCLo2IK-42" value="&amp;lt;&amp;lt;enumeration&amp;gt;&amp;gt;&lt;br&gt;&lt;b&gt;Format&lt;/b&gt;" style="swimlane;fontStyle=0;align=center;verticalAlign=top;childLayout=stackLayout;horizontal=1;startSize=40;horizontalStack=0;resizeParent=1;resizeParentMax=0;resizeLast=0;collapsible=0;marginBottom=0;html=1;whiteSpace=wrap;" vertex="1" parent="WIyWlLk6GJQsqaUBKTNV-1">
          <mxGeometry x="700" y="884" width="120" height="156" as="geometry" />
        </mxCell>
        <mxCell id="ryrtGhmW_Z26ruCLo2IK-67" value="Xml" style="text;strokeColor=none;fillColor=none;align=left;verticalAlign=top;spacingLeft=4;spacingRight=4;overflow=hidden;rotatable=0;points=[[0,0.5],[1,0.5]];portConstraint=eastwest;whiteSpace=wrap;html=1;" vertex="1" parent="ryrtGhmW_Z26ruCLo2IK-42">
          <mxGeometry y="40" width="120" height="26" as="geometry" />
        </mxCell>
        <mxCell id="ryrtGhmW_Z26ruCLo2IK-68" value="Json" style="text;html=1;strokeColor=none;fillColor=none;align=left;verticalAlign=middle;spacingLeft=4;spacingRight=4;overflow=hidden;rotatable=0;points=[[0,0.5],[1,0.5]];portConstraint=eastwest;whiteSpace=wrap;" vertex="1" parent="ryrtGhmW_Z26ruCLo2IK-42">
          <mxGeometry y="66" width="120" height="30" as="geometry" />
        </mxCell>
        <mxCell id="ryrtGhmW_Z26ruCLo2IK-69" value="An" style="text;html=1;strokeColor=none;fillColor=none;align=left;verticalAlign=middle;spacingLeft=4;spacingRight=4;overflow=hidden;rotatable=0;points=[[0,0.5],[1,0.5]];portConstraint=eastwest;whiteSpace=wrap;" vertex="1" parent="ryrtGhmW_Z26ruCLo2IK-42">
          <mxGeometry y="96" width="120" height="30" as="geometry" />
        </mxCell>
        <mxCell id="ryrtGhmW_Z26ruCLo2IK-70" value="Binary" style="text;html=1;strokeColor=none;fillColor=none;align=left;verticalAlign=middle;spacingLeft=4;spacingRight=4;overflow=hidden;rotatable=0;points=[[0,0.5],[1,0.5]];portConstraint=eastwest;whiteSpace=wrap;" vertex="1" parent="ryrtGhmW_Z26ruCLo2IK-42">
          <mxGeometry y="126" width="120" height="30" as="geometry" />
        </mxCell>
        <mxCell id="ryrtGhmW_Z26ruCLo2IK-54" value="&amp;lt;&amp;lt;enumeration&amp;gt;&amp;gt;&lt;br&gt;&lt;b&gt;Status&lt;/b&gt;" style="swimlane;fontStyle=0;align=center;verticalAlign=top;childLayout=stackLayout;horizontal=1;startSize=40;horizontalStack=0;resizeParent=1;resizeParentMax=0;resizeLast=0;collapsible=0;marginBottom=0;html=1;whiteSpace=wrap;" vertex="1" parent="WIyWlLk6GJQsqaUBKTNV-1">
          <mxGeometry x="270" y="1025" width="120" height="132" as="geometry" />
        </mxCell>
        <mxCell id="ryrtGhmW_Z26ruCLo2IK-64" value="Waiting" style="text;strokeColor=none;fillColor=none;align=left;verticalAlign=top;spacingLeft=4;spacingRight=4;overflow=hidden;rotatable=0;points=[[0,0.5],[1,0.5]];portConstraint=eastwest;whiteSpace=wrap;html=1;" vertex="1" parent="ryrtGhmW_Z26ruCLo2IK-54">
          <mxGeometry y="40" width="120" height="26" as="geometry" />
        </mxCell>
        <mxCell id="ryrtGhmW_Z26ruCLo2IK-65" value="Open" style="text;html=1;strokeColor=none;fillColor=none;align=left;verticalAlign=middle;spacingLeft=4;spacingRight=4;overflow=hidden;rotatable=0;points=[[0,0.5],[1,0.5]];portConstraint=eastwest;whiteSpace=wrap;" vertex="1" parent="ryrtGhmW_Z26ruCLo2IK-54">
          <mxGeometry y="66" width="120" height="36" as="geometry" />
        </mxCell>
        <mxCell id="ryrtGhmW_Z26ruCLo2IK-66" value="Closed" style="text;html=1;strokeColor=none;fillColor=none;align=left;verticalAlign=middle;spacingLeft=4;spacingRight=4;overflow=hidden;rotatable=0;points=[[0,0.5],[1,0.5]];portConstraint=eastwest;whiteSpace=wrap;" vertex="1" parent="ryrtGhmW_Z26ruCLo2IK-54">
          <mxGeometry y="102" width="120" height="30" as="geometry" />
        </mxCell>
        <mxCell id="ryrtGhmW_Z26ruCLo2IK-71" value="" style="endArrow=open;endFill=1;endSize=12;html=1;rounded=0;exitX=0;exitY=0.5;exitDx=0;exitDy=0;entryX=1;entryY=0.5;entryDx=0;entryDy=0;edgeStyle=orthogonalEdgeStyle;" edge="1" parent="WIyWlLk6GJQsqaUBKTNV-1" source="ryrtGhmW_Z26ruCLo2IK-42" target="ryrtGhmW_Z26ruCLo2IK-6">
          <mxGeometry width="160" relative="1" as="geometry">
            <mxPoint x="460" y="920" as="sourcePoint" />
            <mxPoint x="620" y="920" as="targetPoint" />
          </mxGeometry>
        </mxCell>
        <mxCell id="ryrtGhmW_Z26ruCLo2IK-72" value="" style="endArrow=open;endFill=1;endSize=12;html=1;rounded=0;exitX=0;exitY=0.5;exitDx=0;exitDy=0;entryX=0;entryY=0.5;entryDx=0;entryDy=0;edgeStyle=orthogonalEdgeStyle;" edge="1" parent="WIyWlLk6GJQsqaUBKTNV-1" source="ryrtGhmW_Z26ruCLo2IK-54">
          <mxGeometry width="160" relative="1" as="geometry">
            <mxPoint x="460" y="920" as="sourcePoint" />
            <mxPoint x="410" y="1144" as="targetPoint" />
          </mxGeometry>
        </mxCell>
        <mxCell id="ryrtGhmW_Z26ruCLo2IK-76" value="&amp;lt;&amp;lt;enumeration&amp;gt;&amp;gt;&lt;br&gt;&lt;b&gt;Type&lt;/b&gt;" style="swimlane;fontStyle=0;align=center;verticalAlign=top;childLayout=stackLayout;horizontal=1;startSize=40;horizontalStack=0;resizeParent=1;resizeParentMax=0;resizeLast=0;collapsible=0;marginBottom=0;html=1;whiteSpace=wrap;" vertex="1" parent="WIyWlLk6GJQsqaUBKTNV-1">
          <mxGeometry x="700" y="800" width="120" height="70" as="geometry" />
        </mxCell>
        <mxCell id="ryrtGhmW_Z26ruCLo2IK-81" value="&amp;lt;&amp;lt;record class&amp;gt;&amp;gt;&lt;br&gt;&lt;b&gt;WebSocketList&lt;/b&gt;" style="swimlane;fontStyle=0;align=center;verticalAlign=top;childLayout=stackLayout;horizontal=1;startSize=38;horizontalStack=0;resizeParent=1;resizeParentMax=0;resizeLast=0;collapsible=0;marginBottom=0;html=1;whiteSpace=wrap;" vertex="1" parent="WIyWlLk6GJQsqaUBKTNV-1">
          <mxGeometry x="435" y="672" width="160" height="46" as="geometry" />
        </mxCell>
        <mxCell id="ryrtGhmW_Z26ruCLo2IK-82" value="" style="line;strokeWidth=1;fillColor=none;align=left;verticalAlign=middle;spacingTop=-1;spacingLeft=3;spacingRight=3;rotatable=0;labelPosition=right;points=[];portConstraint=eastwest;" vertex="1" parent="ryrtGhmW_Z26ruCLo2IK-81">
          <mxGeometry y="38" width="160" height="8" as="geometry" />
        </mxCell>
        <mxCell id="ryrtGhmW_Z26ruCLo2IK-83" value="" style="endArrow=diamondThin;endFill=0;endSize=24;html=1;rounded=0;entryX=0.5;entryY=1;entryDx=0;entryDy=0;exitX=0.5;exitY=0;exitDx=0;exitDy=0;edgeStyle=orthogonalEdgeStyle;" edge="1" parent="WIyWlLk6GJQsqaUBKTNV-1" source="ryrtGhmW_Z26ruCLo2IK-0" target="ryrtGhmW_Z26ruCLo2IK-81">
          <mxGeometry width="160" relative="1" as="geometry">
            <mxPoint x="250" y="680" as="sourcePoint" />
            <mxPoint x="410" y="680" as="targetPoint" />
          </mxGeometry>
        </mxCell>
        <mxCell id="ryrtGhmW_Z26ruCLo2IK-84" value="T = WebSocketDetail" style="endArrow=block;endSize=16;endFill=0;html=1;rounded=0;entryX=1;entryY=0.5;entryDx=0;entryDy=0;exitX=0;exitY=0.5;exitDx=0;exitDy=0;edgeStyle=orthogonalEdgeStyle;" edge="1" parent="WIyWlLk6GJQsqaUBKTNV-1" source="ryrtGhmW_Z26ruCLo2IK-81" target="YLLOaxHBiWGZTTnEDzXJ-157">
          <mxGeometry x="0.0034" width="160" relative="1" as="geometry">
            <mxPoint x="250" y="680" as="sourcePoint" />
            <mxPoint x="410" y="680" as="targetPoint" />
            <mxPoint as="offset" />
          </mxGeometry>
        </mxCell>
        <mxCell id="ryrtGhmW_Z26ruCLo2IK-85" value="" style="endArrow=open;endFill=1;endSize=12;html=1;rounded=0;exitX=0;exitY=0.5;exitDx=0;exitDy=0;entryX=1;entryY=0.5;entryDx=0;entryDy=0;edgeStyle=orthogonalEdgeStyle;" edge="1" parent="WIyWlLk6GJQsqaUBKTNV-1" source="ryrtGhmW_Z26ruCLo2IK-76" target="ryrtGhmW_Z26ruCLo2IK-5">
          <mxGeometry width="160" relative="1" as="geometry">
            <mxPoint x="560" y="940" as="sourcePoint" />
            <mxPoint x="720" y="940" as="targetPoint" />
          </mxGeometry>
        </mxCell>
        <mxCell id="ryrtGhmW_Z26ruCLo2IK-86" value="" style="endArrow=open;endFill=1;endSize=12;html=1;rounded=0;exitX=0;exitY=0.5;exitDx=0;exitDy=0;entryX=1;entryY=0.5;entryDx=0;entryDy=0;edgeStyle=orthogonalEdgeStyle;" edge="1" parent="WIyWlLk6GJQsqaUBKTNV-1" source="YLLOaxHBiWGZTTnEDzXJ-79" target="YLLOaxHBiWGZTTnEDzXJ-60">
          <mxGeometry width="160" relative="1" as="geometry">
            <mxPoint x="560" y="540" as="sourcePoint" />
            <mxPoint x="720" y="540" as="targetPoint" />
          </mxGeometry>
        </mxCell>
        <mxCell id="ryrtGhmW_Z26ruCLo2IK-87" value="" style="endArrow=open;endFill=1;endSize=12;html=1;rounded=0;exitX=0;exitY=0.5;exitDx=0;exitDy=0;entryX=1;entryY=0.5;entryDx=0;entryDy=0;edgeStyle=orthogonalEdgeStyle;" edge="1" parent="WIyWlLk6GJQsqaUBKTNV-1" source="YLLOaxHBiWGZTTnEDzXJ-79" target="ryrtGhmW_Z26ruCLo2IK-3">
          <mxGeometry width="160" relative="1" as="geometry">
            <mxPoint x="540" y="650" as="sourcePoint" />
            <mxPoint x="700" y="650" as="targetPoint" />
          </mxGeometry>
        </mxCell>
        <mxCell id="ryrtGhmW_Z26ruCLo2IK-104" value="&amp;lt;&amp;lt;enumeration&amp;gt;&amp;gt;&lt;br&gt;&lt;b&gt;Server&lt;/b&gt;" style="swimlane;fontStyle=0;align=center;verticalAlign=top;childLayout=stackLayout;horizontal=1;startSize=40;horizontalStack=0;resizeParent=1;resizeParentMax=0;resizeLast=0;collapsible=0;marginBottom=0;html=1;whiteSpace=wrap;" vertex="1" parent="WIyWlLk6GJQsqaUBKTNV-1">
          <mxGeometry x="700" y="1060" width="120" height="156" as="geometry" />
        </mxCell>
        <mxCell id="ryrtGhmW_Z26ruCLo2IK-106" value="WebSocket01" style="text;strokeColor=none;fillColor=none;align=left;verticalAlign=top;spacingLeft=4;spacingRight=4;overflow=hidden;rotatable=0;points=[[0,0.5],[1,0.5]];portConstraint=eastwest;whiteSpace=wrap;html=1;" vertex="1" parent="ryrtGhmW_Z26ruCLo2IK-104">
          <mxGeometry y="40" width="120" height="26" as="geometry" />
        </mxCell>
        <mxCell id="ryrtGhmW_Z26ruCLo2IK-109" value="WebSocket02" style="text;html=1;strokeColor=none;fillColor=none;align=left;verticalAlign=middle;spacingLeft=4;spacingRight=4;overflow=hidden;rotatable=0;points=[[0,0.5],[1,0.5]];portConstraint=eastwest;whiteSpace=wrap;" vertex="1" parent="ryrtGhmW_Z26ruCLo2IK-104">
          <mxGeometry y="66" width="120" height="30" as="geometry" />
        </mxCell>
        <mxCell id="ryrtGhmW_Z26ruCLo2IK-108" value="WebSocket03" style="text;html=1;strokeColor=none;fillColor=none;align=left;verticalAlign=middle;spacingLeft=4;spacingRight=4;overflow=hidden;rotatable=0;points=[[0,0.5],[1,0.5]];portConstraint=eastwest;whiteSpace=wrap;" vertex="1" parent="ryrtGhmW_Z26ruCLo2IK-104">
          <mxGeometry y="96" width="120" height="30" as="geometry" />
        </mxCell>
        <mxCell id="ryrtGhmW_Z26ruCLo2IK-107" value="WebSocket04" style="text;html=1;strokeColor=none;fillColor=none;align=left;verticalAlign=middle;spacingLeft=4;spacingRight=4;overflow=hidden;rotatable=0;points=[[0,0.5],[1,0.5]];portConstraint=eastwest;whiteSpace=wrap;" vertex="1" parent="ryrtGhmW_Z26ruCLo2IK-104">
          <mxGeometry y="126" width="120" height="30" as="geometry" />
        </mxCell>
        <mxCell id="ryrtGhmW_Z26ruCLo2IK-110" value="" style="endArrow=open;endFill=1;endSize=12;html=1;rounded=0;exitX=0;exitY=0.5;exitDx=0;exitDy=0;entryX=1;entryY=0.5;entryDx=0;entryDy=0;edgeStyle=orthogonalEdgeStyle;" edge="1" parent="WIyWlLk6GJQsqaUBKTNV-1" source="ryrtGhmW_Z26ruCLo2IK-104">
          <mxGeometry width="160" relative="1" as="geometry">
            <mxPoint x="550" y="1150" as="sourcePoint" />
            <mxPoint x="620" y="1118" as="targetPoint" />
          </mxGeometry>
        </mxCell>
        <mxCell id="ryrtGhmW_Z26ruCLo2IK-117" value="&amp;lt;&amp;lt;record class&amp;gt;&amp;gt;&lt;br&gt;&lt;b&gt;WebSocketConnectionDetails&lt;/b&gt;" style="swimlane;fontStyle=0;align=center;verticalAlign=top;childLayout=stackLayout;horizontal=1;startSize=38;horizontalStack=0;resizeParent=1;resizeParentMax=0;resizeLast=0;collapsible=0;marginBottom=0;html=1;whiteSpace=wrap;" vertex="1" parent="WIyWlLk6GJQsqaUBKTNV-1">
          <mxGeometry x="140" y="755" width="210" height="228" as="geometry" />
        </mxCell>
        <mxCell id="ryrtGhmW_Z26ruCLo2IK-118" value="+ Id: int" style="text;strokeColor=none;fillColor=none;align=left;verticalAlign=top;spacingLeft=4;spacingRight=4;overflow=hidden;rotatable=0;points=[[0,0.5],[1,0.5]];portConstraint=eastwest;whiteSpace=wrap;html=1;" vertex="1" parent="ryrtGhmW_Z26ruCLo2IK-117">
          <mxGeometry y="38" width="210" height="26" as="geometry" />
        </mxCell>
        <mxCell id="ryrtGhmW_Z26ruCLo2IK-111" value="+ Start: DateTime" style="text;strokeColor=none;fillColor=none;align=left;verticalAlign=top;spacingLeft=4;spacingRight=4;overflow=hidden;rotatable=0;points=[[0,0.5],[1,0.5]];portConstraint=eastwest;whiteSpace=wrap;html=1;" vertex="1" parent="ryrtGhmW_Z26ruCLo2IK-117">
          <mxGeometry y="64" width="210" height="26" as="geometry" />
        </mxCell>
        <mxCell id="ryrtGhmW_Z26ruCLo2IK-116" value="+ Status: Status" style="text;strokeColor=none;fillColor=none;align=left;verticalAlign=top;spacingLeft=4;spacingRight=4;overflow=hidden;rotatable=0;points=[[0,0.5],[1,0.5]];portConstraint=eastwest;whiteSpace=wrap;html=1;" vertex="1" parent="ryrtGhmW_Z26ruCLo2IK-117">
          <mxGeometry y="90" width="210" height="26" as="geometry" />
        </mxCell>
        <mxCell id="ryrtGhmW_Z26ruCLo2IK-115" value="+ Server: Server" style="text;strokeColor=none;fillColor=none;align=left;verticalAlign=top;spacingLeft=4;spacingRight=4;overflow=hidden;rotatable=0;points=[[0,0.5],[1,0.5]];portConstraint=eastwest;whiteSpace=wrap;html=1;" vertex="1" parent="ryrtGhmW_Z26ruCLo2IK-117">
          <mxGeometry y="116" width="210" height="26" as="geometry" />
        </mxCell>
        <mxCell id="ryrtGhmW_Z26ruCLo2IK-114" value="+ IpAddress: string?" style="text;strokeColor=none;fillColor=none;align=left;verticalAlign=top;spacingLeft=4;spacingRight=4;overflow=hidden;rotatable=0;points=[[0,0.5],[1,0.5]];portConstraint=eastwest;whiteSpace=wrap;html=1;" vertex="1" parent="ryrtGhmW_Z26ruCLo2IK-117">
          <mxGeometry y="142" width="210" height="26" as="geometry" />
        </mxCell>
        <mxCell id="ryrtGhmW_Z26ruCLo2IK-113" value="+ Ping: Datetime?" style="text;strokeColor=none;fillColor=none;align=left;verticalAlign=top;spacingLeft=4;spacingRight=4;overflow=hidden;rotatable=0;points=[[0,0.5],[1,0.5]];portConstraint=eastwest;whiteSpace=wrap;html=1;" vertex="1" parent="ryrtGhmW_Z26ruCLo2IK-117">
          <mxGeometry y="168" width="210" height="26" as="geometry" />
        </mxCell>
        <mxCell id="ryrtGhmW_Z26ruCLo2IK-112" value="+ End: DateTime?" style="text;strokeColor=none;fillColor=none;align=left;verticalAlign=top;spacingLeft=4;spacingRight=4;overflow=hidden;rotatable=0;points=[[0,0.5],[1,0.5]];portConstraint=eastwest;whiteSpace=wrap;html=1;" vertex="1" parent="ryrtGhmW_Z26ruCLo2IK-117">
          <mxGeometry y="194" width="210" height="26" as="geometry" />
        </mxCell>
        <mxCell id="ryrtGhmW_Z26ruCLo2IK-125" value="" style="line;strokeWidth=1;fillColor=none;align=left;verticalAlign=middle;spacingTop=-1;spacingLeft=3;spacingRight=3;rotatable=0;labelPosition=right;points=[];portConstraint=eastwest;" vertex="1" parent="ryrtGhmW_Z26ruCLo2IK-117">
          <mxGeometry y="220" width="210" height="8" as="geometry" />
        </mxCell>
        <mxCell id="ryrtGhmW_Z26ruCLo2IK-126" value="&amp;lt;&amp;lt;record class&amp;gt;&amp;gt;&lt;br&gt;&lt;b&gt;WebSocketUrl&lt;/b&gt;" style="swimlane;fontStyle=0;align=center;verticalAlign=top;childLayout=stackLayout;horizontal=1;startSize=38;horizontalStack=0;resizeParent=1;resizeParentMax=0;resizeLast=0;collapsible=0;marginBottom=0;html=1;whiteSpace=wrap;" vertex="1" parent="WIyWlLk6GJQsqaUBKTNV-1">
          <mxGeometry x="405" y="1010" width="210" height="150" as="geometry" />
        </mxCell>
        <mxCell id="ryrtGhmW_Z26ruCLo2IK-127" value="+ Id: int" style="text;strokeColor=none;fillColor=none;align=left;verticalAlign=top;spacingLeft=4;spacingRight=4;overflow=hidden;rotatable=0;points=[[0,0.5],[1,0.5]];portConstraint=eastwest;whiteSpace=wrap;html=1;" vertex="1" parent="ryrtGhmW_Z26ruCLo2IK-126">
          <mxGeometry y="38" width="210" height="26" as="geometry" />
        </mxCell>
        <mxCell id="ryrtGhmW_Z26ruCLo2IK-128" value="+ Url: string" style="text;strokeColor=none;fillColor=none;align=left;verticalAlign=top;spacingLeft=4;spacingRight=4;overflow=hidden;rotatable=0;points=[[0,0.5],[1,0.5]];portConstraint=eastwest;whiteSpace=wrap;html=1;" vertex="1" parent="ryrtGhmW_Z26ruCLo2IK-126">
          <mxGeometry y="64" width="210" height="26" as="geometry" />
        </mxCell>
        <mxCell id="ryrtGhmW_Z26ruCLo2IK-129" value="+ Protocol: string = &quot;dmdata.v2&quot;" style="text;strokeColor=none;fillColor=none;align=left;verticalAlign=top;spacingLeft=4;spacingRight=4;overflow=hidden;rotatable=0;points=[[0,0.5],[1,0.5]];portConstraint=eastwest;whiteSpace=wrap;html=1;" vertex="1" parent="ryrtGhmW_Z26ruCLo2IK-126">
          <mxGeometry y="90" width="210" height="26" as="geometry" />
        </mxCell>
        <mxCell id="ryrtGhmW_Z26ruCLo2IK-130" value="+ Expiration: int" style="text;strokeColor=none;fillColor=none;align=left;verticalAlign=top;spacingLeft=4;spacingRight=4;overflow=hidden;rotatable=0;points=[[0,0.5],[1,0.5]];portConstraint=eastwest;whiteSpace=wrap;html=1;" vertex="1" parent="ryrtGhmW_Z26ruCLo2IK-126">
          <mxGeometry y="116" width="210" height="26" as="geometry" />
        </mxCell>
        <mxCell id="ryrtGhmW_Z26ruCLo2IK-133" value="" style="line;strokeWidth=1;fillColor=none;align=left;verticalAlign=middle;spacingTop=-1;spacingLeft=3;spacingRight=3;rotatable=0;labelPosition=right;points=[];portConstraint=eastwest;" vertex="1" parent="ryrtGhmW_Z26ruCLo2IK-126">
          <mxGeometry y="142" width="210" height="8" as="geometry" />
        </mxCell>
      </root>
    </mxGraphModel>
  </diagram>
</mxfile>
